Coordinates
version=1
nRows=4
nColumns=63
inDegrees=yes

Units are S.I. units (second, meters, Newtons, ...)
If the header above contains a line with 'inDegrees', this indicates whether rotational values are in degrees (yes) or radians (no).

endheader
time	pelvis_tilt	pelvis_list	pelvis_rotation	pelvis_tx	pelvis_ty	pelvis_tz	hip_flexion_r	hip_adduction_r	hip_rotation_r	knee_angle_r	knee_angle_r_beta	ankle_angle_r	subtalar_angle_r	mtp_angle_r	hip_flexion_l	hip_adduction_l	hip_rotation_l	knee_angle_l	knee_angle_l_beta	ankle_angle_l	subtalar_angle_l	mtp_angle_l	L5_S1_Flex_Ext	L5_S1_Lat_Bending	L5_S1_axial_rotation	L4_L5_Flex_Ext	L4_L5_Lat_Bending	L4_L5_axial_rotation	L3_L4_Flex_Ext	L3_L4_Lat_Bending	L3_L4_axial_rotation	L2_L3_Flex_Ext	L2_L3_Lat_Bending	L2_L3_axial_rotation	L1_L2_Flex_Ext	L1_L2_Lat_Bending	L1_L2_axial_rotation	L1_T12_Flex_Ext	L1_T12_Lat_Bending	L1_T12_axial_rotation	Abs_r3	Abs_r2	Abs_r1	Abs_t1	Abs_t2	neck_flexion	neck_bending	neck_rotation	arm_flex_r	arm_add_r	arm_rot_r	elbow_flex_r	pro_sup_r	wrist_flex_r	wrist_dev_r	arm_flex_l	arm_add_l	arm_rot_l	elbow_flex_l	pro_sup_l	wrist_flex_l	wrist_dev_l
      2.00000000	     -3.81825867	     -2.86202175	    105.39740000	      0.26212754	      0.41337075	      0.87137497	     -2.07332508	     -2.98191625	     -6.21383179	      3.03806884	      0.05302430	     22.36239644	     -7.40975448	      0.00000000	      0.52300190	      4.12856820	      9.05478223	      1.69659117	      0.02961110	     22.94531179	     11.17054544	      0.00000000	      0.01452055	     -0.64925932	     -0.08372181	      0.02696611	     -0.86351490	     -0.08895443	      0.02385581	     -1.57860911	     -0.08895443	      0.01659553	     -1.57860911	     -0.07325659	      0.01348378	     -1.32396961	     -0.06802397	      0.00829704	     -1.00570269	     -0.06279136	      0.10371882	     -7.34455128	     -0.46563560	      0.00000000	      0.00000000	     24.92951342	     -0.91237465	    -15.74299152	     20.56592868	    -12.19232367	      3.25934748	    123.61555896	     68.40165412	    -10.26180928	      7.41911500	     16.19078578	    -14.10738206	    129.93055881	      6.42217046	      2.82016001	     -1.40674036	    -15.08210375
      2.01851852	     -3.86122264	     -2.96328911	    105.63715783	      0.26198097	      0.41308885	      0.87211686	     -1.92726671	     -3.03171246	     -5.94341906	      3.13064087	      0.05463999	     22.29442692	     -8.22995329	      0.00000000	      0.73642207	      4.20977647	      8.67531721	      1.86013977	      0.03246556	     23.09089274	     11.90872314	      0.00000000	      0.00138956	     -0.68482642	     -0.02033031	      0.00258056	     -0.91081914	     -0.02160095	      0.00228291	     -1.66508697	     -0.02160095	      0.00158813	     -1.66508697	     -0.01778902	      0.00129035	     -1.39649804	     -0.01651837	      0.00079400	     -1.06079613	     -0.01524773	      0.00992551	     -7.74689346	     -0.11307107	      0.00000000	      0.00000000	     25.25458328	     -0.77648521	    -17.84698058	     20.69169948	    -12.36686922	      2.45600960	    125.28173303	     71.25594762	     -6.31073252	      9.70021985	     16.47376884	    -14.10686142	    131.31276905	      6.18960187	      2.74673932	     -0.73551349	    -13.00188829
      2.03703704	     -3.90263599	     -3.01571030	    105.74798298	      0.26194005	      0.41266355	      0.87252323	     -1.85795659	     -3.08756531	     -6.02614596	      3.19205490	      0.05571187	     22.34487245	     -8.34685414	      0.00000000	      0.82241574	      4.27621205	      8.70928741	      1.90139426	      0.03318559	     23.16986065	     11.97277795	      0.00000000	     -0.00562449	     -0.70283121	     -0.01720505	     -0.01044524	     -0.93476552	     -0.01828036	     -0.00924048	     -1.70886381	     -0.01828036	     -0.00642823	     -1.70886381	     -0.01505442	     -0.00522290	     -1.43321341	     -0.01397910	     -0.00321383	     -1.08868555	     -0.01290379	     -0.04017518	     -7.95056726	     -0.09568931	      0.00000000	      0.00000000	     25.31218630	     -0.44979529	    -18.12770991	     21.29942722	    -12.93548742	      3.66401495	    126.69806830	     71.59110319	     -5.44214801	      9.90620533	     16.37390036	    -14.32216760	    131.42438176	      6.33445904	      2.75338210	     -0.71467364	    -12.68091320
      2.05555556	     -3.87727852	     -3.01047043	    106.11572515	      0.26204878	      0.41231944	      0.87434061	     -1.70961883	     -3.03432780	     -6.33889490	      3.41844666	      0.05966315	     22.36615384	     -8.72325043	      0.00000000	      1.12898836	      4.26694155	      8.63907836	      2.24243595	      0.03913789	     23.20130525	     12.38832177	      0.00000000	     -0.04362677	     -0.70593669	     -0.12475918	     -0.08101928	     -0.93889579	     -0.13255662	     -0.07167443	     -1.71641446	     -0.13255662	     -0.04986104	     -1.71641446	     -0.10916428	     -0.04051182	     -1.43954609	     -0.10136683	     -0.02492834	     -1.09349593	     -0.09356938	     -0.31162169	     -7.98569697	     -0.69387310	      0.00000000	      0.00000000	     25.35542996	      0.19469202	    -17.69145027	     22.59653916	    -12.88792349	      3.96490196	    127.50322165	     73.11032982	      0.28087203	     12.45694229	     16.37405026	    -14.49206325	    131.38071089	      6.30997873	      2.59035465	     -0.49899273	    -11.45696127
